<mxfile host="app.diagrams.net" modified="2023-04-06T08:20:59.350Z" agent="Mozilla/5.0 (Windows NT 10.0; WOW64) AppleWebKit/537.36 (KHTML, like Gecko) Chrome/102.0.0.0 Safari/537.36" etag="e92suSXNjGypDqo-kukx" version="21.1.3" type="github">
  <diagram name="第 1 页" id="CoICmTv7iYryOOldWacj">
    <mxGraphModel dx="1300" dy="690" grid="1" gridSize="10" guides="1" tooltips="1" connect="1" arrows="1" fold="1" page="1" pageScale="1" pageWidth="827" pageHeight="1169" math="0" shadow="0">
      <root>
        <mxCell id="0" />
        <mxCell id="1" parent="0" />
        <mxCell id="XEnebl5IkRsJUe84vlUi-1" value="" style="ellipse;whiteSpace=wrap;html=1;aspect=fixed;fillColor=#1A1A1A;" parent="1" vertex="1">
          <mxGeometry x="150" y="140" width="80" height="80" as="geometry" />
        </mxCell>
        <mxCell id="XEnebl5IkRsJUe84vlUi-2" value="" style="ellipse;whiteSpace=wrap;html=1;aspect=fixed;fillColor=#1A1A1A;" parent="1" vertex="1">
          <mxGeometry x="400" y="140" width="80" height="80" as="geometry" />
        </mxCell>
        <mxCell id="XEnebl5IkRsJUe84vlUi-4" value="" style="endArrow=none;html=1;rounded=0;exitX=1;exitY=0.5;exitDx=0;exitDy=0;entryX=0;entryY=0.5;entryDx=0;entryDy=0;strokeWidth=2;" parent="1" source="XEnebl5IkRsJUe84vlUi-1" target="XEnebl5IkRsJUe84vlUi-2" edge="1">
          <mxGeometry width="50" height="50" relative="1" as="geometry">
            <mxPoint x="300" y="210" as="sourcePoint" />
            <mxPoint x="350" y="160" as="targetPoint" />
          </mxGeometry>
        </mxCell>
        <mxCell id="XEnebl5IkRsJUe84vlUi-5" value="" style="ellipse;whiteSpace=wrap;html=1;aspect=fixed;fillColor=#1A1A1A;" parent="1" vertex="1">
          <mxGeometry x="580" y="290" width="80" height="80" as="geometry" />
        </mxCell>
        <mxCell id="XEnebl5IkRsJUe84vlUi-6" value="" style="endArrow=none;html=1;rounded=0;exitX=0.941;exitY=0.802;exitDx=0;exitDy=0;exitPerimeter=0;strokeWidth=2;" parent="1" source="XEnebl5IkRsJUe84vlUi-2" edge="1">
          <mxGeometry width="50" height="50" relative="1" as="geometry">
            <mxPoint x="540" y="210" as="sourcePoint" />
            <mxPoint x="590" y="310" as="targetPoint" />
          </mxGeometry>
        </mxCell>
        <mxCell id="XEnebl5IkRsJUe84vlUi-7" value="" style="endArrow=none;html=1;rounded=0;entryX=0.375;entryY=0.875;entryDx=0;entryDy=0;entryPerimeter=0;exitX=1;exitY=0;exitDx=0;exitDy=0;strokeWidth=2;" parent="1" source="XEnebl5IkRsJUe84vlUi-8" target="XEnebl5IkRsJUe84vlUi-5" edge="1">
          <mxGeometry width="50" height="50" relative="1" as="geometry">
            <mxPoint x="470" y="410" as="sourcePoint" />
            <mxPoint x="520" y="360" as="targetPoint" />
          </mxGeometry>
        </mxCell>
        <mxCell id="XEnebl5IkRsJUe84vlUi-8" value="" style="ellipse;whiteSpace=wrap;html=1;aspect=fixed;fillColor=#1A1A1A;" parent="1" vertex="1">
          <mxGeometry x="480" y="470" width="80" height="80" as="geometry" />
        </mxCell>
        <mxCell id="XEnebl5IkRsJUe84vlUi-9" value="" style="ellipse;whiteSpace=wrap;html=1;aspect=fixed;fillColor=#1A1A1A;" parent="1" vertex="1">
          <mxGeometry x="210" y="540" width="80" height="80" as="geometry" />
        </mxCell>
        <mxCell id="XEnebl5IkRsJUe84vlUi-10" value="" style="endArrow=none;html=1;rounded=0;exitX=1;exitY=0.5;exitDx=0;exitDy=0;strokeWidth=2;" parent="1" source="XEnebl5IkRsJUe84vlUi-9" edge="1">
          <mxGeometry width="50" height="50" relative="1" as="geometry">
            <mxPoint x="470" y="420" as="sourcePoint" />
            <mxPoint x="490" y="530" as="targetPoint" />
          </mxGeometry>
        </mxCell>
        <mxCell id="XEnebl5IkRsJUe84vlUi-11" value="" style="ellipse;whiteSpace=wrap;html=1;aspect=fixed;fillColor=#1A1A1A;" parent="1" vertex="1">
          <mxGeometry x="70" y="360" width="80" height="80" as="geometry" />
        </mxCell>
        <mxCell id="XEnebl5IkRsJUe84vlUi-12" value="" style="endArrow=none;html=1;rounded=0;entryX=0;entryY=0;entryDx=0;entryDy=0;strokeWidth=2;" parent="1" source="XEnebl5IkRsJUe84vlUi-11" target="XEnebl5IkRsJUe84vlUi-9" edge="1">
          <mxGeometry width="50" height="50" relative="1" as="geometry">
            <mxPoint x="200" y="470" as="sourcePoint" />
            <mxPoint x="250" y="420" as="targetPoint" />
          </mxGeometry>
        </mxCell>
      </root>
    </mxGraphModel>
  </diagram>
</mxfile>
